<?xml version="1.0" standalone="no"?><!-- Generator: Gravit.io --><svg xmlns="http://www.w3.org/2000/svg" xmlns:xlink="http://www.w3.org/1999/xlink" style="isolation:isolate" viewBox="0 0 198 42.341" width="198" height="42.341"><defs><clipPath id="_clipPath_CJQG3LFPuzZFaWfoHfSI1464XGnOqRE8"><rect width="198" height="42.341"/></clipPath></defs><g clip-path="url(#_clipPath_CJQG3LFPuzZFaWfoHfSI1464XGnOqRE8)"><g id="g7791"><g id="g3382"><path d=" M 47.8 14.557 C 43.061 14.557 39.342 17.704 39.342 21.761 C 39.342 25.807 43.061 28.926 47.8 28.926 C 52.54 28.926 56.302 25.807 56.302 21.761 C 56.302 17.704 52.54 14.557 47.8 14.557 Z  M 47.8 33.76 C 40.358 33.76 34.486 28.532 34.486 21.761 C 34.486 15.007 40.358 9.707 47.8 9.707 C 55.276 9.707 61.12 15.007 61.12 21.761 C 61.12 28.532 55.276 33.76 47.8 33.76 Z " fill="rgb(134,142,150)"/></g><g id="g3386"><path d=" M 95.426 33.76 C 92.734 33.76 90.581 31.551 90.581 28.842 L 90.581 18.842 C 90.581 16.45 88.516 14.557 85.93 14.557 C 83.405 14.557 81.363 16.45 81.363 18.842 L 81.363 33.76 C 78.688 33.76 76.507 31.612 76.507 28.926 L 76.507 18.842 C 76.507 16.45 74.453 14.557 71.878 14.557 C 69.353 14.557 67.277 16.45 67.277 18.842 L 67.277 28.865 C 67.277 31.551 65.124 33.76 62.432 33.76 L 62.432 18.842 C 62.432 13.797 66.667 9.707 71.878 9.707 C 74.703 9.707 77.217 10.867 78.926 12.742 C 80.63 10.867 83.161 9.707 85.93 9.707 C 91.18 9.707 95.426 13.797 95.426 18.842 L 95.426 33.76 Z " fill="rgb(134,142,150)"/></g><g id="g3390"><path d=" M 111.181 33.716 C 109.91 33.716 108.689 33.611 107.579 33.367 C 105.065 32.667 103.6 30.037 104.244 27.534 C 104.355 27.217 104.438 26.912 104.549 26.662 L 104.605 26.607 C 105.959 28.1 108.173 28.86 111.181 28.86 C 115.593 28.86 119.095 25.747 119.095 21.812 C 119.095 17.705 115.593 14.492 111.181 14.492 C 106.98 14.492 102.796 16.812 102.796 21.912 L 102.796 37.601 C 102.796 40.237 100.57 42.341 97.928 42.341 L 97.928 21.912 C 97.928 14.875 103.495 9.652 111.181 9.652 C 114.545 9.652 117.708 10.929 120.144 13.149 C 122.553 15.385 123.918 18.493 123.918 21.812 C 123.918 28.488 118.329 33.716 111.181 33.716 Z " fill="rgb(134,142,150)"/></g><g id="g3394"><path d=" M 145.716 5.111 L 135.338 5.111 L 135.338 33.759 L 135.127 33.759 C 132.558 33.759 130.504 31.55 130.504 28.925 L 130.504 5.111 L 120.126 5.111 C 117.506 5.111 115.403 2.941 115.403 0.31 L 150.506 0.31 C 150.506 2.941 148.402 5.111 145.716 5.111 Z " fill="rgb(134,142,150)"/></g><g id="g3398"><path d=" M 176.427 5.338 L 169.557 20.445 L 182.543 20.445 L 175.606 5.266 L 176.427 5.338 Z  M 187.177 30.734 L 184.613 25.207 L 167.387 25.207 L 164.867 30.89 C 163.663 33.16 160.472 33.848 158.041 33.848 L 172.054 3.102 C 172.864 1.348 174.274 0.31 175.9 0.31 C 177.504 0.31 178.969 1.348 179.768 3.102 L 193.621 33.465 C 191.012 33.715 188.176 32.938 187.177 30.734 Z " fill="rgb(134,142,150)"/></g><g id="g3402"><path d=" M 29.048 9.351 C 26.428 6.582 22.599 4.751 18.353 4.751 C 10.85 4.751 4.734 10.206 4.734 16.938 C 4.734 23.653 10.85 29.142 18.353 29.142 C 21.933 29.142 25.318 27.771 27.882 25.601 C 29.675 24.153 32.294 24.236 33.998 25.696 C 32.694 27.727 30.929 29.475 28.748 30.851 C 25.69 32.816 22.099 33.821 18.353 33.821 C 8.214 33.821 0 26.228 0 16.938 C 0 7.603 8.214 0 18.353 0 C 25.574 0 32.133 3.957 35.03 10.012 C 33.194 11.222 30.607 11.066 29.048 9.351 Z " fill="rgb(134,142,150)"/></g><g id="g3406"><path d=" M 196.407 29.841 C 196.352 29.88 196.257 29.935 196.18 29.957 C 196.18 29.957 196.33 30.124 196.812 30.718 L 196.729 30.773 C 196.524 30.962 196.191 30.923 196.035 30.74 C 195.497 30.085 195.458 30.035 195.458 30.035 L 194.837 30.035 L 194.837 29.841 C 194.881 29.624 195.064 29.419 195.308 29.419 L 195.625 29.419 C 195.83 29.419 195.991 29.375 196.102 29.319 C 196.18 29.291 196.191 29.219 196.191 29.114 C 196.191 29.047 196.191 28.853 195.625 28.853 L 194.781 28.853 L 194.781 30.429 C 194.781 30.696 194.559 30.895 194.282 30.895 L 194.176 30.895 L 194.176 28.67 C 194.176 28.431 194.404 28.265 194.642 28.237 L 195.625 28.237 C 196.707 28.237 196.812 28.853 196.812 29.114 C 196.812 29.458 196.657 29.68 196.407 29.841 Z  M 195.469 27.876 C 194.365 27.876 193.444 28.659 193.444 29.636 C 193.444 30.607 194.365 31.395 195.469 31.395 C 196.579 31.395 197.512 30.607 197.512 29.636 C 197.512 28.659 196.579 27.876 195.469 27.876 Z  M 195.469 31.922 C 194.049 31.922 192.916 30.895 192.916 29.636 C 192.916 28.381 194.049 27.327 195.469 27.327 C 196.868 27.327 198 28.381 198 29.636 C 198 30.895 196.868 31.922 195.469 31.922 Z " fill="rgb(134,142,150)"/></g><g id="g3410"><path d=" M 152.032 0.322 L 152.032 29.082 C 152.032 31.657 154.275 33.76 156.872 33.76 L 156.872 5.029 C 156.872 2.454 154.658 0.322 152.032 0.322 Z " fill="rgb(134,142,150)"/></g></g></g></svg>