<?xml version="1.0" standalone="no"?><!-- Generator: Gravit.io --><svg xmlns="http://www.w3.org/2000/svg" xmlns:xlink="http://www.w3.org/1999/xlink" style="isolation:isolate" viewBox="0 0 2500 444" width="2500" height="444"><defs><clipPath id="_clipPath_EZh1PzoekNOkfOo0OpOXvA9BdLPYOcgy"><rect width="2500" height="444"/></clipPath></defs><g clip-path="url(#_clipPath_EZh1PzoekNOkfOo0OpOXvA9BdLPYOcgy)"><path d=" M 820.763 255.902 C 820.763 292.504 789.707 323.56 748.669 323.56 C 707.631 323.56 676.575 293.613 676.575 255.902 L 676.575 123.915 L 654.392 123.915 L 654.392 257.011 C 654.392 304.704 690.994 345.742 748.669 345.742 C 806.344 345.742 842.946 303.595 842.946 257.011 L 842.946 123.915 L 820.763 123.915 L 820.763 255.902 Z  M 1057.01 123.915 L 987.134 123.915 L 987.134 345.742 L 1057.01 345.742 C 1121.34 345.742 1164.596 303.595 1164.596 234.829 C 1164.596 167.171 1121.34 123.915 1057.01 123.915 Z  M 1054.791 323.56 L 1009.317 323.56 L 1009.317 146.097 L 1054.791 146.097 C 1106.921 146.097 1142.413 182.699 1142.413 234.829 C 1142.413 290.285 1108.03 323.56 1054.791 323.56 Z  M 1674.8 323.56 C 1623.78 323.56 1587.178 281.412 1587.178 230.392 C 1587.178 179.372 1623.78 140.552 1674.8 140.552 C 1714.729 140.552 1740.24 163.844 1740.24 163.844 L 1751.331 148.316 C 1751.331 148.316 1725.821 120.587 1673.691 120.587 C 1612.689 120.587 1564.996 168.28 1564.996 230.392 C 1564.996 292.504 1610.47 345.742 1674.8 345.742 C 1728.039 345.742 1756.877 309.141 1756.877 309.141 L 1744.676 294.722 C 1743.567 294.722 1718.057 323.56 1674.8 323.56 Z  M 1896.628 345.742 L 1918.811 345.742 L 1918.811 123.915 L 1896.628 123.915 L 1896.628 345.742 Z  M 2040.816 146.097 L 2118.456 146.097 L 2118.456 345.742 L 2140.639 345.742 L 2140.639 146.097 L 2218.279 146.097 L 2218.279 123.915 L 2040.816 123.915 L 2040.816 146.097 Z  M 2475.599 123.915 L 2406.832 223.737 L 2336.957 123.915 L 2312.555 123.915 L 2395.741 247.029 L 2395.741 345.742 L 2417.924 345.742 L 2417.924 247.029 L 2500 123.915 L 2475.599 123.915 L 2475.599 123.915 Z  M 1352.041 123.915 L 1264.419 345.742 L 1287.711 345.742 L 1311.003 282.521 L 1408.607 262.557 L 1439.663 345.742 L 1462.955 345.742 L 1375.333 123.915 L 1352.041 123.915 L 1352.041 123.915 Z  M 1320.985 258.12 L 1364.241 153.861 L 1365.35 153.861 L 1401.952 242.592 L 1320.985 258.12 Z " fill="rgb(134,142,150)"/><path d=" M 147.516 1.909 L 0 87.313 L 0 282.521 C 0 372.362 72.094 445.565 161.934 445.565 C 191.881 445.565 219.61 437.801 244.011 424.491 L 363.798 355.725 C 411.491 330.214 443.656 281.412 443.656 223.737 L 443.656 19.655 L 414.818 3.018 L 288.376 70.676 L 288.376 283.631 C 288.376 292.504 287.267 301.377 286.158 310.25 C 283.94 319.123 281.721 326.887 278.394 334.651 L 275.067 341.306 C 270.63 341.306 242.902 331.324 228.483 321.341 C 221.828 316.905 216.282 312.468 210.736 306.923 C 205.191 301.377 200.754 295.831 196.318 289.176 C 191.881 282.521 176.353 253.684 176.353 224.846 L 176.353 18.546 L 147.516 1.909 Z  M 219.61 403.418 C 211.846 406.745 200.754 411.182 191.881 413.4 C 183.008 415.618 175.244 415.618 166.371 415.618 C 157.498 415.618 148.625 414.509 139.752 412.291 C 130.878 410.073 123.114 407.854 115.35 404.527 C 107.587 401.199 99.823 396.763 93.168 392.326 C 74.312 379.017 65.439 367.925 57.675 355.725 C 53.239 349.07 48.802 341.306 45.475 333.542 C 42.147 325.778 39.929 316.905 37.711 308.032 C 33.274 300.268 33.274 291.395 33.274 282.521 L 33.274 103.95 L 144.188 36.293 L 144.188 223.737 C 144.188 294.722 196.318 354.616 262.866 369.034 C 260.648 372.362 258.429 375.689 255.102 377.907 C 242.902 390.108 232.919 397.872 219.61 403.418 Z  M 408.163 248.138 C 407.054 255.902 403.727 263.666 401.508 270.321 C 398.181 276.976 394.854 283.631 390.417 290.285 C 385.98 296.94 372.671 313.577 354.925 323.56 C 337.178 333.542 320.541 336.869 310.559 339.088 C 317.214 321.341 321.65 303.595 321.65 283.631 L 321.65 87.313 L 410.382 36.293 L 410.382 223.737 C 410.382 232.61 410.382 240.374 408.163 248.138 Z " fill="rgb(134,142,150)"/></g></svg>