<?xml version="1.0" standalone="no"?><!-- Generator: Gravit.io --><svg xmlns="http://www.w3.org/2000/svg" xmlns:xlink="http://www.w3.org/1999/xlink" style="isolation:isolate" viewBox="0 0 574.9 191" width="574.9" height="191"><defs><clipPath id="_clipPath_8Ph1Vizb9IIulRqyQ6650VHLzJQCJCT5"><rect width="574.9" height="191"/></clipPath></defs><g clip-path="url(#_clipPath_8Ph1Vizb9IIulRqyQ6650VHLzJQCJCT5)"><path d=" M 188.7 0 C 183 0.6 178.9 2.3 176.1 5.4 C 174.6 7 173.5 9.1 172.7 11.4 C 171.9 13.8 171.5 16.7 171.5 20 L 171.5 52.3 C 168.5 50.2 165.3 48.5 161.9 47.1 C 156.9 45.2 151.5 44.2 146 44.2 C 130.6 44.2 118.7 48.7 110.6 57.6 C 102.4 66.6 98.3 80 98.3 97.5 C 98.3 114.7 102.5 128 110.6 137.1 C 118.9 146.3 131.1 150.9 146.9 150.9 C 154.1 150.9 160.7 149.9 166.5 147.8 C 172.2 145.8 177.2 142.8 181.2 138.9 C 185.2 135 188.3 130.3 190.4 124.9 C 192.5 119.4 193.6 113.2 193.6 106.6 L 193.6 4 C 193.5 1.8 191.4 -0.3 188.7 0 Z  M 171.5 104.7 C 171.5 108.7 171 112.3 169.9 115.4 C 168.8 118.5 167.2 121.1 165.1 123.2 C 163 125.3 160.4 127 157.4 128 C 154.3 129.1 150.7 129.7 146.8 129.7 C 142.1 129.7 138.3 129.1 134.9 127.9 C 131.5 126.7 128.8 124.8 126.7 122.2 C 122.3 117 120.2 108.9 120.2 97.3 C 120.2 91.6 120.7 86.7 121.9 82.5 C 123 78.4 124.6 75 126.9 72.3 C 128 71 129.2 69.8 130.6 68.8 C 132 67.8 133.5 67 135.1 66.3 C 138.4 65 142.4 64.3 146.9 64.3 C 150.1 64.3 153.3 64.8 156.3 66 C 159.3 67.1 161.9 68.6 164.2 70.6 C 169 74.7 171.6 80.3 171.6 86.2 L 171.5 104.7 L 171.5 104.7 Z " fill="rgb(134,142,150)"/><path d=" M 89 52.2 C 89 49.9 87 48.1 84.7 48.1 C 84.5 48.1 84.4 48.1 84.2 48.1 C 78.5 48.7 74.4 50.4 71.6 53.5 C 70.1 55.1 69 57.2 68.2 59.5 C 67.5 61.9 67 64.8 67 68.1 L 67 108.8 C 67 112.6 66.6 115.8 65.7 118.5 C 64.8 121.2 63.5 123.3 61.7 125 C 59.9 126.7 57.6 127.9 54.8 128.7 C 52 129.5 48.6 129.9 44.5 129.9 C 40.4 129.9 37 129.5 34.2 128.7 C 31.3 127.9 29.1 126.7 27.3 125 C 25.5 123.3 24.2 121.2 23.3 118.5 C 22.4 115.8 22 112.7 22 108.8 L 22 52.3 C 22 50.1 20 48.2 17.7 48.2 C 17.5 48.2 17.4 48.2 17.2 48.2 C 11.5 48.8 7.4 50.5 4.6 53.6 C 3.1 55.2 2 57.3 1.2 59.6 C 0.5 62 0 64.9 0 68.2 L 0 109.5 C 0 121.9 2.8 131.3 8.6 138 C 16 146.6 27.7 150.8 44.5 150.8 C 61.4 150.8 73.1 146.6 80.5 138 C 86.2 131.3 89 122 89 109.5 L 89 65.7 L 89 65.2 L 89 52.2 L 89 52.2 Z " fill="rgb(134,142,150)"/><path d=" M 574.5 48.9 C 573.9 47.5 572.7 46.4 571.2 45.8 C 568.4 44.8 565.4 44.2 562.6 44.2 C 559.2 44.2 556 45 553.3 46.3 C 550.3 47.9 548.5 49.5 547.3 51.9 L 520.5 110.5 L 495.1 51.8 L 495.1 51.7 C 493.7 49 491.9 47.7 489.2 46.3 C 486.5 44.9 483.3 44.2 479.9 44.2 C 477 44.2 474.1 44.7 471.2 45.8 C 469.7 46.3 468.5 47.5 468 48.9 C 467.4 50.3 467.5 51.8 468.1 53.2 L 507.1 140.5 C 506.1 142.8 505.2 144.8 504.4 146.8 C 501.2 153.9 498.4 159.3 494.7 162.8 C 493 164.5 491 165.7 488.8 166.5 C 486.5 167.4 483.8 167.8 480.6 167.8 L 471.5 167.8 C 469.3 167.8 467.4 168.6 466 170.1 C 464.7 171.5 464 173.4 464.2 175.3 C 464.4 177.6 465.1 179.8 466.3 181.8 C 467.4 183.7 468.9 185.3 470.8 186.8 C 474.5 189.5 479.2 191 484.1 191 C 488.9 191 493.4 190.2 497.5 188.8 C 501.6 187.4 505.4 185.2 508.9 182.3 C 512.3 179.5 515.5 176 518.4 171.8 C 521.2 167.8 523.9 162.9 526.3 157.5 L 574.5 53.2 C 575 51.8 575.1 50.3 574.5 48.9 Z " fill="rgb(134,142,150)"/><path d=" M 465.2 145.7 L 465.2 85.4 C 465.2 74 462.2 64.7 456.3 57.8 C 448.5 48.7 436 44.1 419.1 44.1 C 415.6 44.1 412.3 44.3 409.2 44.9 C 406.2 45.4 403.2 46.2 400.6 47.3 C 398 48.3 395.5 49.7 393.2 51.3 C 391.4 52.5 389.7 54 388.1 55.6 C 384.5 52.1 379.9 49.4 374.5 47.4 C 368.5 45.2 361.6 44.2 354 44.2 C 349.1 44.2 344.3 45 340 46.5 C 336.2 47.8 332.8 49.6 329.8 51.9 C 329.2 51.1 328.5 50.3 327.8 49.6 C 326.7 48.6 325.3 47.6 323.8 46.9 C 321 45.5 317.7 44.7 313.6 44.3 C 311.9 44.1 310.3 44.6 309 45.7 C 307.8 46.7 307.2 48 307.2 49.5 L 307.2 132.8 C 307.2 135.9 307.7 138.6 308.8 141 C 309.8 143.1 311.3 145 313.1 146.5 C 316 148.8 320 150.3 325.2 151.1 C 328.7 151.6 331.2 149.5 331.2 146.1 L 331.2 85.6 C 331.2 82.4 331.7 79.6 332.5 77.2 C 333.4 75 334.7 73 336.4 71.5 C 338.1 70 340.3 68.9 342.9 68.1 C 345.6 67.4 348.8 66.9 352.4 66.9 C 356.6 66.9 359.9 67.3 362.7 68 C 365.5 68.7 367.6 69.9 369.2 71.5 C 370.9 73.1 372.1 75.2 372.9 77.9 C 373.7 80.7 374.1 84.1 374.1 88.4 L 374.1 132.9 C 374.1 136 374.6 138.7 375.7 141.1 C 376.7 143.2 378.2 145.1 380 146.6 C 382.9 148.9 386.9 150.4 392.1 151.2 C 395.6 151.7 398.1 149.6 398.1 146.2 L 398.1 85.9 C 398.1 79.2 399.7 74.5 403.1 71.5 C 406.4 68.5 411.6 67.1 419 67.1 C 427.2 67.1 432.6 68.6 436 71.9 C 437.8 73.6 439 75.7 439.8 78.4 C 440.7 81.2 441.1 84.5 441.1 88.6 L 441.1 133.1 C 441.1 136.2 441.6 138.9 442.7 141.3 C 443.7 143.4 445.2 145.3 447 146.8 C 449.9 149.1 453.9 150.6 459.1 151.4 C 459.4 151.4 459.8 151.5 460.1 151.5 C 461.5 151.5 462.8 151 463.6 150.2 C 464.7 148.6 465.2 147.3 465.2 145.7 Z " fill="rgb(134,142,150)"/><path d=" M 251.5 44.2 C 243.8 44.2 236.9 45.4 230.8 47.7 C 224.8 50 219.6 53.5 215.4 58.1 C 211.2 62.6 208 68.3 205.9 74.9 C 203.7 81.5 202.7 89.1 202.7 97.4 C 202.7 106.6 204 114.8 206.5 121.8 C 208.9 128.4 212.5 134 217.2 138.4 C 221.6 142.6 227.1 145.8 233.4 147.9 C 239.4 149.9 246.2 150.9 253.7 150.9 C 271.9 150.9 292.8 139.8 292.8 125.6 C 292.8 123.6 292.1 121.5 290.9 119.9 C 289.6 118.2 287.9 117.2 286 117.2 C 284.9 117.2 283.8 117.5 282.7 118.2 C 281.2 119.1 279.7 120.2 278.1 121.2 C 272.3 125.2 265.9 129.7 253.7 129.7 C 249.5 129.7 245.6 129.2 242.2 128.1 C 238.8 127.1 235.9 125.4 233.4 123.3 C 230.9 121.2 229 118.5 227.6 115.5 C 226.2 112.5 225.4 109 225 105.1 L 284.3 105.1 C 287.3 105.1 289.7 104.5 291.6 103.3 C 293.3 102.3 294.6 100.7 295.4 98.8 C 297 95.3 297 91 297 88.2 C 297 83.4 296.2 71.2 288.5 60.7 C 280.7 49.7 268.2 44.2 251.5 44.2 Z  M 274.3 85.1 C 273.8 85.6 273.1 85.9 272.4 85.9 L 225.2 85.9 C 225.7 82.4 226.7 79.4 228 76.7 C 229.4 74 231.2 71.7 233.4 69.9 C 235.6 68.1 238.2 66.8 241.2 65.9 C 244.2 65 247.6 64.6 251.4 64.6 C 258.6 64.6 263.9 66.1 267.7 69 C 271.6 72 273.9 76.7 274.8 83.2 C 275 84 274.8 84.6 274.3 85.1 Z " fill="rgb(134,142,150)"/></g></svg>