<?xml version="1.0" standalone="no"?><!-- Generator: Gravit.io --><svg xmlns="http://www.w3.org/2000/svg" xmlns:xlink="http://www.w3.org/1999/xlink" style="isolation:isolate" viewBox="0 0 350 99.591" width="350" height="99.591"><defs><clipPath id="_clipPath_2DCkXsR5nUFKvj0qErHOdJD3c3jkTLE0"><rect width="350" height="99.591"/></clipPath></defs><g clip-path="url(#_clipPath_2DCkXsR5nUFKvj0qErHOdJD3c3jkTLE0)"><path d=" M 60.666 3.33 L 60.666 28.096 L 60.666 28.54 C 60.666 37.866 59.747 49.89 52.565 60.445 C 51.067 62.597 49.399 64.613 47.391 66.56 C 47.391 66.56 47.357 66.594 47.357 66.594 C 43.442 70.351 38.302 73.904 30.95 78.003 C 23.597 73.904 18.423 70.351 14.543 66.594 C 14.543 66.594 14.509 66.56 14.509 66.56 C 12.501 64.612 10.799 62.631 9.335 60.445 C 2.152 49.924 1.233 37.866 1.233 28.54 L 1.233 25.466 L 1.233 3.331 L 2.425 3.194 C 2.595 3.16 18.526 1.178 30.95 1.178 C 43.375 1.178 59.304 3.16 59.474 3.194 L 60.666 3.33 L 60.666 3.33 Z " fill="rgb(134,142,150)"/><path d=" M 30.949 3.945 C 21.69 3.945 10.425 5.073 5.421 5.619 L 3.991 25.465 L 30.95 25.465 L 57.909 25.465 L 56.515 5.619 C 51.477 5.073 40.209 3.945 30.95 3.945 L 30.949 3.945 Z  M 30.949 27.139 L 3.956 28.643 C 3.956 37.558 4.841 49.036 11.581 58.908 C 12.977 60.924 14.577 62.835 16.483 64.68 C 22.405 70.145 29.077 73.152 30.949 73.938 C 32.821 73.152 39.493 70.145 45.416 64.68 C 47.322 62.835 48.923 60.958 50.318 58.908 C 57.024 49.036 57.908 37.558 57.908 28.643 L 30.949 27.139 Z " fill="rgb(255,255,255)"/><path d=" M 27.715 7.463 C 26.32 7.463 24.821 7.704 23.255 7.909 C 21.519 8.182 19.717 8.419 17.913 8.419 L 17.062 8.419 L 17.062 11.939 L 15.802 11.939 L 15.802 13.988 L 17.062 13.988 L 17.062 16.789 L 15.802 16.789 L 15.802 18.838 L 17.062 18.838 L 17.062 22.663 L 17.913 22.663 C 19.853 22.663 21.758 22.358 23.562 22.085 C 25.128 21.845 26.592 21.605 27.818 21.605 C 28.839 21.605 29.588 21.743 30.167 22.05 L 31.801 22.05 C 32.38 21.743 33.129 21.605 34.15 21.605 C 35.41 21.605 36.871 21.845 38.403 22.085 C 40.241 22.358 42.148 22.663 44.055 22.663 L 44.906 22.663 L 44.906 18.838 L 46.165 18.838 L 46.165 16.789 L 44.906 16.789 L 44.906 13.988 L 46.165 13.988 L 46.165 11.973 L 44.906 11.973 L 44.906 8.42 L 44.055 8.42 C 42.25 8.42 40.445 8.148 38.709 7.909 C 37.109 7.669 35.613 7.463 34.251 7.463 C 32.958 7.463 31.868 7.669 30.983 8.079 C 30.098 7.669 29.008 7.463 27.714 7.463 L 27.715 7.463 Z  M 30.95 28.541 C 30.916 28.541 30.882 28.575 30.882 28.609 L 27.92 37.727 L 18.39 37.727 C 18.356 37.727 18.322 37.73 18.288 37.765 C 18.288 37.833 18.288 37.867 18.356 37.867 L 26.081 43.503 L 23.119 52.689 C 23.119 52.689 23.119 52.723 23.153 52.723 L 23.187 52.723 L 30.984 47.053 L 38.778 52.723 L 38.812 52.723 C 38.846 52.689 38.846 52.655 38.812 52.655 L 35.85 43.503 L 43.578 37.867 C 43.612 37.867 43.646 37.833 43.612 37.765 C 43.612 37.73 43.578 37.727 43.544 37.727 L 33.98 37.727 L 31.018 28.609 C 31.018 28.575 30.984 28.541 30.95 28.541 L 30.95 28.541 Z  M 13.351 30.386 L 12.806 30.862 C 11.479 31.853 10.559 33.29 10.253 34.929 C 10.082 35.749 10.082 36.567 10.253 37.353 C 9.607 36.839 8.857 36.464 8.074 36.191 L 7.359 35.987 L 7.189 36.702 C 6.815 38.341 7.087 40.015 7.904 41.45 C 8.721 42.884 10.083 43.946 11.649 44.424 L 12.262 44.594 C 12.33 45.107 12.466 45.617 12.637 46.13 C 11.752 45.549 10.73 45.207 9.675 45.139 L 8.96 45.071 L 8.96 45.823 C 8.926 47.497 9.539 49.069 10.628 50.299 C 11.751 51.528 13.25 52.279 14.918 52.416 L 15.565 52.484 C 15.735 52.996 15.973 53.476 16.246 53.886 C 15.531 53.613 14.747 53.474 13.965 53.474 C 13.692 53.474 13.42 53.474 13.147 53.508 L 12.432 53.611 L 12.569 54.329 C 12.875 55.968 13.795 57.405 15.156 58.396 C 16.279 59.215 17.574 59.624 18.969 59.624 C 19.242 59.624 19.514 59.624 19.786 59.59 L 20.43 59.522 C 20.703 59.966 21.009 60.375 21.384 60.751 C 20.362 60.58 19.276 60.682 18.288 61.023 L 17.607 61.265 L 17.88 61.946 C 18.527 63.483 19.716 64.714 21.213 65.363 C 22.064 65.738 22.95 65.945 23.835 65.945 C 24.55 65.945 25.299 65.806 25.98 65.567 L 26.491 65.397 C 27.342 66.114 28.295 66.833 29.623 67.755 C 29.01 68.165 28.363 68.574 27.614 69.086 L 28.908 69.872 C 29.623 69.394 30.27 68.982 30.849 68.572 C 31.427 68.948 32.074 69.394 32.789 69.872 L 34.083 69.086 C 33.334 68.608 32.687 68.165 32.074 67.755 C 33.402 66.833 34.356 66.114 35.207 65.397 L 35.714 65.567 C 36.395 65.806 37.144 65.945 37.859 65.945 C 38.778 65.945 39.664 65.738 40.481 65.363 C 41.979 64.68 43.171 63.483 43.817 61.946 L 44.09 61.265 L 43.409 61.023 C 42.422 60.682 41.332 60.58 40.311 60.751 C 40.685 60.375 40.992 59.966 41.264 59.522 L 41.911 59.59 C 42.183 59.624 42.456 59.624 42.728 59.624 C 44.124 59.624 45.418 59.215 46.541 58.396 C 47.869 57.405 48.788 55.968 49.129 54.329 L 49.265 53.611 L 48.55 53.508 C 48.277 53.474 48.005 53.474 47.733 53.474 C 46.95 53.474 46.2 53.613 45.452 53.886 C 45.724 53.442 45.962 52.962 46.133 52.484 L 46.779 52.416 C 48.447 52.279 49.946 51.528 51.069 50.299 C 52.193 49.069 52.769 47.463 52.734 45.823 L 52.734 45.071 L 51.985 45.139 C 50.93 45.207 49.912 45.583 49.026 46.13 C 49.231 45.651 49.333 45.107 49.401 44.594 L 50.15 44.424 C 51.75 43.946 53.075 42.884 53.892 41.45 C 54.709 40.015 54.981 38.341 54.607 36.702 L 54.437 35.987 L 53.722 36.191 C 52.905 36.43 52.193 36.839 51.546 37.352 C 51.682 36.566 51.682 35.748 51.546 34.928 C 51.239 33.289 50.32 31.852 48.992 30.861 L 48.414 30.419 L 48.039 31.032 C 47.154 32.432 46.847 34.106 47.154 35.745 C 47.46 37.385 48.38 38.788 49.707 39.778 C 49.469 40.325 49.299 40.94 49.197 41.521 C 48.788 40.428 48.141 39.471 47.222 38.72 L 46.64 38.239 L 46.198 38.855 C 45.245 40.221 44.802 41.861 45.04 43.501 C 45.245 45.14 46.096 46.642 47.356 47.701 L 47.39 47.735 C 47.015 48.247 46.709 48.794 46.504 49.409 C 46.334 48.282 45.891 47.19 45.143 46.234 L 44.7 45.652 L 44.155 46.163 C 42.93 47.29 42.18 48.828 42.044 50.468 C 41.908 52.107 42.419 53.748 43.44 55.046 L 43.474 55.08 C 42.998 55.49 42.589 56.003 42.249 56.516 C 42.317 55.354 42.112 54.192 41.568 53.133 L 41.227 52.483 L 40.58 52.86 C 39.151 53.714 38.095 55.046 37.618 56.652 C 37.142 58.257 37.312 59.931 38.061 61.434 L 38.061 61.468 C 37.516 61.775 37.005 62.184 36.597 62.629 C 36.903 61.501 36.937 60.339 36.631 59.177 L 36.461 58.462 L 35.78 58.701 C 34.214 59.247 32.923 60.34 32.106 61.808 C 31.357 63.209 31.153 64.849 31.527 66.42 C 31.323 66.557 31.084 66.729 30.88 66.866 C 30.642 66.695 30.438 66.557 30.233 66.42 C 30.608 64.849 30.403 63.209 29.655 61.808 C 28.872 60.34 27.577 59.247 25.978 58.701 L 25.297 58.462 L 25.126 59.177 C 24.82 60.305 24.854 61.501 25.16 62.629 C 24.718 62.184 24.241 61.775 23.662 61.468 L 23.696 61.434 C 24.445 59.931 24.582 58.257 24.139 56.652 C 23.663 55.046 22.607 53.714 21.177 52.86 L 20.53 52.483 L 20.19 53.133 C 19.645 54.192 19.444 55.354 19.512 56.516 C 19.172 55.969 18.763 55.49 18.286 55.08 L 18.32 55.046 C 19.341 53.747 19.852 52.108 19.716 50.434 C 19.58 48.76 18.831 47.256 17.605 46.128 L 17.061 45.618 L 16.618 46.2 C 15.869 47.122 15.426 48.214 15.256 49.375 C 15.049 48.795 14.743 48.213 14.368 47.701 L 14.402 47.667 C 15.696 46.608 16.513 45.107 16.717 43.467 C 16.922 41.828 16.513 40.154 15.56 38.821 L 15.117 38.205 L 14.538 38.685 C 13.619 39.437 12.938 40.393 12.564 41.486 C 12.496 40.871 12.325 40.29 12.053 39.744 C 13.38 38.753 14.3 37.316 14.606 35.711 C 14.913 34.071 14.606 32.397 13.721 30.997 L 13.347 30.384 L 13.351 30.386 Z " fill="rgb(134,142,150)"/><path d=" M 27.681 9.138 C 26.422 9.138 24.991 9.341 23.46 9.58 C 22.098 9.785 20.739 9.957 19.309 10.06 L 18.935 20.89 C 20.364 20.822 21.826 20.615 23.255 20.376 C 24.855 20.137 26.388 19.896 27.784 19.896 C 28.532 19.896 29.18 19.967 29.758 20.104 L 30.065 11.05 L 30.065 9.546 C 29.453 9.273 28.67 9.138 27.682 9.138 L 27.681 9.138 Z  M 34.218 9.138 C 33.231 9.138 32.482 9.273 31.835 9.546 L 31.835 11.05 L 32.141 20.104 C 32.72 19.967 33.367 19.896 34.116 19.896 C 35.512 19.896 37.041 20.137 38.641 20.376 C 40.071 20.615 41.535 20.821 42.965 20.89 L 42.591 10.06 C 41.161 9.957 39.765 9.785 38.437 9.58 C 36.905 9.341 35.478 9.137 34.218 9.137 L 34.218 9.138 Z  M 13.01 32.468 C 12.262 33.22 11.785 34.143 11.58 35.167 C 11.41 36.192 11.512 37.251 11.921 38.173 C 12.67 37.421 13.147 36.499 13.351 35.474 C 13.521 34.449 13.419 33.425 13.01 32.468 L 13.01 32.468 Z  M 48.787 32.468 C 48.379 33.425 48.243 34.483 48.447 35.508 C 48.651 36.533 49.162 37.455 49.877 38.207 C 50.285 37.25 50.422 36.192 50.217 35.167 C 50.013 34.143 49.502 33.186 48.787 32.468 L 48.787 32.468 Z  M 30.95 34.997 L 29.18 39.436 L 24.379 39.779 L 28.09 42.853 L 26.899 47.498 L 30.95 44.936 L 35.002 47.498 L 33.81 42.853 L 37.484 39.779 L 32.721 39.47 L 30.95 34.997 L 30.95 34.997 Z  M 8.414 37.798 C 8.346 38.823 8.585 39.881 9.095 40.769 C 9.606 41.658 10.389 42.374 11.308 42.818 C 11.41 41.794 11.172 40.769 10.627 39.847 C 10.117 38.959 9.334 38.242 8.414 37.798 Z  M 53.414 37.798 C 52.461 38.242 51.715 38.959 51.204 39.847 C 50.694 40.769 50.455 41.794 50.523 42.818 C 51.443 42.374 52.223 41.658 52.733 40.769 C 53.244 39.847 53.482 38.823 53.414 37.798 Z  M 14.917 40.358 C 14.237 41.144 13.794 42.1 13.658 43.125 C 13.522 44.15 13.692 45.208 14.168 46.13 C 14.849 45.345 15.292 44.391 15.428 43.366 C 15.564 42.307 15.394 41.28 14.917 40.358 Z  M 46.915 40.358 C 46.439 41.28 46.268 42.342 46.405 43.366 C 46.541 44.391 46.984 45.345 47.664 46.13 C 48.141 45.208 48.311 44.15 48.175 43.125 C 48.039 42.1 47.596 41.144 46.915 40.358 Z  M 10.389 46.61 C 10.56 47.635 11.002 48.591 11.683 49.377 C 12.364 50.163 13.284 50.71 14.271 50.915 C 14.101 49.891 13.658 48.9 12.977 48.148 C 12.296 47.397 11.377 46.849 10.389 46.61 Z  M 51.409 46.61 C 50.422 46.849 49.537 47.363 48.822 48.148 C 48.107 48.934 47.664 49.891 47.528 50.915 C 48.515 50.676 49.435 50.163 50.116 49.377 C 50.83 48.626 51.273 47.669 51.409 46.61 Z  M 44.532 47.771 C 43.885 48.591 43.476 49.547 43.408 50.606 C 43.34 51.665 43.579 52.689 44.055 53.577 C 44.702 52.757 45.111 51.767 45.179 50.742 C 45.281 49.683 45.043 48.659 44.532 47.771 Z  M 17.267 47.805 C 16.756 48.693 16.552 49.717 16.586 50.776 C 16.688 51.835 17.063 52.791 17.71 53.611 C 18.22 52.723 18.459 51.699 18.39 50.64 C 18.288 49.581 17.914 48.625 17.267 47.805 Z  M 21.111 54.568 C 20.805 55.558 20.771 56.62 21.077 57.61 C 21.384 58.601 21.963 59.487 22.745 60.136 C 23.052 59.145 23.086 58.087 22.78 57.096 C 22.473 56.106 21.894 55.217 21.111 54.568 L 21.111 54.568 Z  M 40.685 54.568 C 39.902 55.217 39.323 56.106 39.017 57.096 C 38.71 58.087 38.745 59.145 39.051 60.136 C 39.834 59.487 40.413 58.601 40.719 57.61 C 41.026 56.62 40.991 55.558 40.685 54.568 Z  M 14.135 54.877 C 14.51 55.834 15.123 56.686 15.974 57.301 C 16.825 57.916 17.812 58.223 18.8 58.291 C 18.459 57.301 17.846 56.483 16.995 55.868 C 16.144 55.253 15.156 54.911 14.135 54.877 Z  M 47.631 54.877 C 46.61 54.911 45.622 55.253 44.771 55.868 C 43.954 56.482 43.307 57.301 42.967 58.291 C 43.988 58.257 44.976 57.916 45.827 57.301 C 46.678 56.686 47.291 55.834 47.631 54.877 Z  M 35.514 60.377 C 34.629 60.856 33.88 61.606 33.369 62.528 C 32.859 63.451 32.654 64.475 32.79 65.5 C 33.71 65.021 34.459 64.271 34.935 63.349 C 35.412 62.426 35.616 61.402 35.514 60.377 Z  M 26.288 60.411 C 26.185 61.436 26.39 62.46 26.866 63.349 C 27.343 64.271 28.092 65.021 29.011 65.5 C 29.113 64.475 28.909 63.451 28.432 62.528 C 27.956 61.64 27.207 60.89 26.288 60.411 Z  M 20.314 62.042 C 20.06 62.05 19.805 62.077 19.549 62.12 C 20.094 63.008 20.874 63.725 21.827 64.135 C 22.747 64.545 23.802 64.68 24.824 64.509 C 24.279 63.621 23.496 62.904 22.542 62.494 C 21.828 62.161 21.077 62.02 20.314 62.042 Z  M 41.516 62.049 C 40.745 62.034 39.98 62.187 39.291 62.494 C 38.337 62.938 37.554 63.621 37.009 64.509 C 37.316 64.543 37.622 64.577 37.929 64.577 C 38.644 64.577 39.359 64.442 40.005 64.135 C 40.959 63.691 41.742 63.008 42.287 62.12 C 42.031 62.077 41.773 62.053 41.516 62.049 L 41.516 62.049 Z " fill="rgb(255,255,255)"/><path d=" M 329.27 4.253 C 317.05 6.815 308.232 12.452 308.232 22.084 C 308.232 29.941 313.442 34.004 319.774 36.736 L 330.427 41.416 C 335.703 43.705 339.582 47.156 339.582 53.168 C 339.582 59.624 335.192 64.372 327.635 64.372 C 322.699 64.372 317.866 62.083 315.245 58.804 L 312.181 51.289 L 306.022 51.289 L 307.959 63.211 C 312.623 66.9 318.069 69.222 326.171 69.222 C 342.714 65.772 348.332 57.745 348.332 49.444 C 348.332 40.426 342.273 36.018 335.329 33.012 L 325.217 28.607 C 320.383 26.49 316.947 23.482 316.947 18.632 C 316.947 12.722 321.065 8.932 328.043 8.932 C 333.319 8.932 336.143 10.877 338.424 13.268 L 340.977 21.297 L 345.369 21.297 L 345.369 9.375 C 340.979 6.097 334.819 4.253 329.269 4.253 L 329.27 4.253 Z  M 275.69 4.971 L 270.416 6.473 L 248.595 63.689 L 244.373 64.271 L 240.154 63.621 L 220.614 34.756 L 238.656 9.856 L 245.53 8.9 L 245.088 5.823 L 234.809 6.099 L 224.53 5.823 L 224.087 8.9 L 231.745 10.061 L 217.789 30.659 L 205.365 9.993 L 212.852 8.832 L 212.409 5.755 L 199.917 6.099 L 187.323 5.755 L 186.881 8.832 L 193.758 9.788 L 211.967 37.421 L 192.975 63.655 L 186.098 64.612 L 186.54 67.79 L 196.377 67.515 L 206.659 67.79 L 207.101 64.612 L 199.884 63.553 L 214.894 41.556 L 228.578 63.485 L 221.091 64.646 L 221.534 67.825 L 234.128 67.549 L 244.407 67.756 L 251.625 67.549 L 262.176 67.825 L 262.618 64.748 L 254.961 63.587 L 260.678 47.087 L 282.397 47.087 L 288.389 63.587 L 280.899 64.748 L 281.341 67.825 L 292.948 67.549 L 305.103 67.825 L 305.546 64.748 L 298.668 63.792 L 275.69 4.972 L 275.69 4.971 Z  M 76.8 5.755 L 76.8 21.366 L 80.239 21.366 L 84.287 10.163 L 97.463 9.992 L 97.463 63.485 L 86.909 64.646 L 87.352 67.719 L 102.125 67.447 L 116.387 67.719 L 116.829 64.646 L 106.721 63.485 L 106.721 9.992 L 119.893 10.163 L 123.945 21.366 L 127.384 21.366 L 127.384 5.755 L 102.056 6.03 L 76.8 5.755 L 76.8 5.755 Z  M 132.658 5.755 L 132.216 8.831 L 140.148 9.992 L 140.148 63.485 L 132.216 64.645 L 132.658 67.719 L 144.813 67.446 L 179.735 67.719 L 182.799 51.392 L 179.463 51.392 L 173.576 63.314 L 149.372 63.586 L 149.372 37.079 L 161.697 37.454 L 165.2 46.711 L 168.299 46.711 L 167.413 34.789 L 168.299 23.758 L 165.2 23.758 L 161.697 33.013 L 149.372 33.391 L 149.372 9.89 L 172.691 10.162 L 177.627 21.639 L 180.62 21.639 L 179.735 5.755 L 144.813 6.03 L 132.658 5.755 L 132.658 5.755 Z  M 27.548 10.756 C 26.583 10.746 25.556 10.862 24.509 11.016 L 24.509 12.415 C 25.973 12.21 27.301 12.074 28.458 12.177 L 28.493 10.812 C 28.186 10.777 27.87 10.759 27.548 10.756 L 27.548 10.756 Z  M 35.029 10.79 C 34.468 10.76 33.923 10.76 33.395 10.812 L 33.429 12.177 C 34.416 12.108 35.537 12.176 36.763 12.347 L 36.763 10.948 C 36.167 10.88 35.591 10.82 35.029 10.79 L 35.029 10.79 Z  M 37.784 11.05 L 37.784 12.452 C 38.022 12.486 38.227 12.52 38.465 12.554 C 39.35 12.691 40.236 12.826 41.155 12.929 L 41.121 11.53 C 40.304 11.427 39.486 11.323 38.669 11.186 C 38.363 11.152 38.09 11.118 37.784 11.05 L 37.784 11.05 Z  M 23.488 11.152 C 23.386 11.186 23.318 11.186 23.216 11.186 C 22.399 11.323 21.581 11.427 20.764 11.53 L 20.73 12.929 C 21.649 12.826 22.535 12.691 23.42 12.554 L 23.488 12.554 L 23.488 11.152 L 23.488 11.152 Z  M 27.187 13.901 C 25.953 13.937 24.637 14.126 23.284 14.331 L 23.284 15.73 C 23.352 15.73 23.386 15.73 23.454 15.696 C 25.292 15.422 26.961 15.185 28.357 15.287 L 28.391 13.919 C 27.999 13.893 27.598 13.888 27.187 13.901 L 27.187 13.901 Z  M 33.532 13.919 L 33.566 15.287 C 34.451 15.219 35.436 15.287 36.491 15.423 L 36.491 14.055 C 35.436 13.953 34.451 13.885 33.532 13.919 L 33.532 13.919 Z  M 37.512 14.157 L 37.512 15.56 C 37.819 15.594 38.159 15.662 38.466 15.696 C 39.385 15.832 40.304 15.968 41.257 16.07 L 41.223 14.671 C 40.372 14.569 39.521 14.433 38.67 14.331 C 38.295 14.262 37.887 14.226 37.512 14.157 L 37.512 14.157 Z  M 22.228 14.467 C 21.718 14.535 21.173 14.603 20.662 14.671 L 20.628 16.07 L 22.262 15.866 L 22.262 14.467 L 22.228 14.467 L 22.228 14.467 Z  M 271.168 16.346 L 280.765 42.819 L 262.043 42.819 L 271.167 16.346 L 271.168 16.346 Z  M 33.638 17.027 L 33.672 18.395 C 34.796 18.326 36.121 18.462 37.516 18.667 L 37.516 17.302 C 36.154 17.098 34.829 16.959 33.638 17.027 L 33.638 17.027 Z  M 28.259 17.061 C 27.101 16.992 25.841 17.131 24.514 17.302 L 24.514 18.701 C 25.875 18.496 27.136 18.36 28.225 18.429 L 28.259 17.061 L 28.259 17.061 Z  M 38.572 17.404 L 38.572 18.837 L 38.538 18.837 C 39.457 18.974 40.411 19.112 41.398 19.215 L 41.364 17.813 C 40.445 17.71 39.559 17.575 38.708 17.438 C 38.674 17.438 38.64 17.438 38.572 17.404 L 38.572 17.404 Z  M 23.492 17.438 C 23.39 17.438 23.322 17.472 23.254 17.472 C 22.369 17.609 21.483 17.744 20.598 17.847 L 20.564 19.249 C 21.551 19.147 22.539 19.008 23.492 18.871 L 23.56 18.871 L 23.56 17.438 L 23.492 17.438 L 23.492 17.438 Z  M 99.007 81.405 L 96.995 81.637 L 92.395 81.671 L 87.01 81.637 L 87.01 84.856 L 87.725 84.856 L 88.576 82.566 L 91.405 82.501 L 91.405 93.557 L 89.155 93.789 L 89.257 94.42 L 92.396 94.352 L 95.426 94.42 L 95.531 93.789 L 93.383 93.557 L 93.383 82.501 L 97.199 82.566 L 97.88 82.467 L 97.88 93.656 L 96.757 93.823 L 96.859 94.451 L 98.837 94.386 L 100.607 94.451 L 100.709 93.823 L 99.688 93.656 L 99.688 88.242 L 100.232 87.911 C 100.914 87.48 101.631 87.082 102.21 87.082 C 102.96 87.082 103.402 87.481 103.402 88.444 L 103.402 93.656 L 102.483 93.823 L 102.585 94.451 L 104.355 94.386 L 106.469 94.42 L 106.571 93.789 L 105.175 93.622 L 105.175 88.775 C 105.175 86.451 104.766 85.587 102.38 85.587 L 99.654 87.314 L 99.654 81.405 L 99.007 81.405 L 99.007 81.405 Z  M 302.576 81.47 L 301.449 81.77 L 296.816 93.587 L 295.349 93.789 L 295.451 94.42 L 297.463 94.352 L 299.713 94.42 L 299.815 93.789 L 298.178 93.556 L 299.407 90.136 L 299.407 90.17 L 304.006 90.17 L 305.266 93.587 L 303.666 93.823 L 303.768 94.451 L 306.256 94.386 L 308.847 94.451 L 308.949 93.823 L 307.482 93.621 L 302.576 81.469 L 302.576 81.47 Z  M 219.858 81.538 L 218.292 83.265 C 217.611 83.996 217.271 84.723 217.271 85.819 L 217.271 85.986 L 216.178 85.986 L 215.599 86.617 L 215.599 86.915 L 217.237 86.915 L 217.237 93.656 L 215.906 93.823 L 216.008 94.451 L 218.156 94.386 L 221.053 94.451 L 221.155 93.755 L 219.007 93.622 L 219.007 86.884 L 221.359 86.884 L 221.359 86.02 L 219.007 86.02 L 219.007 85.556 C 219.007 84.361 219.143 83.829 219.416 83.497 L 219.79 82.999 L 222.211 82.999 L 222.211 81.538 L 219.858 81.538 L 219.858 81.538 Z  M 119.519 81.637 L 119.416 82.269 L 121.122 82.501 L 121.122 89.904 C 121.122 92.826 122.452 94.751 126.133 94.751 C 129.882 93.888 130.868 92.329 130.868 89.939 L 130.868 82.501 L 132.472 82.269 L 132.37 81.637 L 130.187 81.702 L 127.801 81.637 L 127.699 82.269 L 129.336 82.467 L 129.336 90.103 C 129.336 92.46 128.246 93.721 126.303 93.721 C 124.156 93.721 123.168 92.428 123.168 90.171 L 123.168 82.501 L 124.768 82.269 L 124.666 81.637 L 122.109 81.702 L 119.519 81.637 L 119.519 81.637 Z  M 227.248 81.671 L 227.248 84.89 L 227.997 84.89 L 228.848 82.566 L 231.677 82.535 L 231.677 93.588 L 229.43 93.823 L 229.533 94.451 L 232.668 94.386 L 235.701 94.451 L 235.769 93.823 L 233.621 93.588 L 233.621 82.535 L 236.45 82.566 L 237.301 84.89 L 238.016 84.89 L 238.016 81.671 L 232.634 81.736 L 227.248 81.671 L 227.248 81.671 Z  M 146.169 81.702 L 144.807 81.804 L 144.636 82.665 L 144.739 83.696 L 145.249 83.795 L 146.577 83.696 L 146.781 82.832 L 146.679 81.804 L 146.168 81.702 L 146.169 81.702 Z  M 184.987 81.702 L 183.622 81.804 L 183.452 82.665 L 183.554 83.696 L 184.068 83.795 L 185.396 83.696 L 185.6 82.832 L 185.498 81.804 L 184.987 81.702 L 184.987 81.702 Z  M 336.517 81.702 L 335.152 81.804 L 334.982 82.665 L 335.084 83.696 L 335.594 83.795 L 336.925 83.696 L 337.13 82.832 L 337.027 81.804 L 336.517 81.702 L 336.517 81.702 Z  M 301.752 83.463 L 301.888 84.46 L 303.662 89.273 L 299.675 89.273 L 301.752 83.463 L 301.752 83.463 Z  M 190.102 83.562 L 188.874 84.757 L 188.874 85.952 L 187.648 85.952 L 187.001 86.583 L 187.001 86.883 L 188.805 86.883 L 188.805 92.328 C 188.805 93.988 189.079 94.717 191.192 94.717 L 193.544 93.458 L 193.238 92.826 C 192.727 93.059 192.146 93.324 191.6 93.324 C 190.817 93.324 190.613 92.76 190.613 92.229 L 190.613 86.651 L 193.442 86.651 L 196.577 94.352 L 197.327 94.12 L 195.451 96.875 L 193.851 96.875 L 193.851 98.701 L 193.851 98.769 L 196.101 98.769 L 198.212 94.154 L 201.245 86.682 L 202.44 86.484 L 202.338 85.853 L 200.768 85.921 L 199.134 85.853 L 199.032 86.484 L 199.883 86.682 L 197.565 93.29 L 197.429 92.027 L 195.349 86.682 L 196.578 86.484 L 196.476 85.853 L 190.579 85.853 L 190.579 83.562 L 190.103 83.562 L 190.102 83.562 Z  M 288.187 83.562 L 286.958 84.757 L 286.958 85.952 L 285.733 85.952 L 285.086 86.583 L 285.086 86.883 L 286.89 86.883 L 286.89 92.328 C 286.89 93.988 287.163 94.717 289.277 94.717 L 291.459 93.523 L 291.152 92.891 C 290.607 93.124 290.196 93.324 289.651 93.324 C 288.867 93.324 288.664 92.76 288.664 92.229 L 288.664 86.883 L 291.493 86.883 L 291.493 86.054 L 288.664 86.054 L 288.664 83.562 L 288.187 83.562 L 288.187 83.562 Z  M 329.458 83.562 L 328.232 84.757 L 328.232 85.952 L 327.007 85.952 L 326.357 86.583 L 326.357 86.883 L 328.164 86.883 L 328.164 92.328 C 328.164 93.988 328.437 94.717 330.551 94.717 L 332.73 93.523 L 332.423 92.891 C 331.912 93.124 331.504 93.324 330.959 93.324 C 330.175 93.324 329.972 92.76 329.972 92.229 L 329.972 86.883 L 332.764 86.883 L 332.764 86.054 L 329.938 86.054 L 329.938 83.562 L 329.458 83.562 L 329.458 83.562 Z  M 178.178 85.488 C 175.997 85.952 174.771 86.684 174.771 87.945 C 174.771 88.974 175.519 89.67 176.337 90.068 L 177.804 90.833 C 178.792 91.331 179.166 91.665 179.166 92.362 C 179.166 93.125 178.656 93.755 177.668 93.755 C 177.088 93.755 176.542 93.556 176.133 93.29 L 175.486 91.761 L 174.291 91.761 L 174.635 93.823 C 175.146 94.088 176.336 94.652 177.494 94.652 C 179.641 94.188 181.007 93.589 181.007 91.929 C 181.007 90.899 180.495 90.204 179.234 89.573 L 177.804 88.874 C 176.986 88.475 176.507 88.113 176.507 87.515 C 176.507 86.851 177.224 86.45 177.94 86.45 C 178.622 86.45 179.165 86.75 179.37 86.85 L 179.847 88.143 L 180.837 88.143 L 180.837 86.317 C 180.292 85.919 179.201 85.488 178.178 85.488 L 178.178 85.488 Z  M 268.559 85.488 C 266.378 85.952 265.151 86.684 265.151 87.945 C 265.151 88.974 265.903 89.67 266.721 90.068 L 268.185 90.833 C 269.173 91.331 269.55 91.665 269.55 92.362 C 269.55 93.125 269.037 93.755 268.049 93.755 C 267.469 93.755 266.925 93.556 266.516 93.29 L 265.866 91.761 L 264.675 91.761 L 265.015 93.823 C 265.527 94.088 266.754 94.652 267.878 94.652 C 270.025 94.188 271.388 93.589 271.388 91.929 C 271.388 90.899 270.879 90.204 269.618 89.573 L 268.185 88.874 C 267.367 88.475 266.891 88.113 266.891 87.515 C 266.891 86.851 267.605 86.45 268.321 86.45 C 269.003 86.45 269.55 86.75 269.754 86.85 L 270.231 88.143 L 271.218 88.143 L 271.218 86.317 C 270.673 85.919 269.582 85.488 268.559 85.488 L 268.559 85.488 Z  M 322.885 85.488 C 320.704 85.952 319.477 86.684 319.477 87.945 C 319.477 88.974 320.228 89.67 321.046 90.068 L 322.51 90.833 C 323.465 91.331 323.875 91.665 323.875 92.362 C 323.875 93.125 323.363 93.755 322.374 93.755 C 321.795 93.755 321.251 93.556 320.842 93.29 L 320.192 91.761 L 319.001 91.761 L 319.341 93.823 C 319.852 94.088 321.045 94.652 322.204 94.652 C 324.351 94.188 325.714 93.589 325.714 91.929 C 325.714 90.899 325.205 90.204 323.944 89.573 L 322.511 88.874 C 321.693 88.475 321.217 88.113 321.217 87.515 C 321.217 86.851 321.931 86.45 322.647 86.45 C 323.328 86.45 323.909 86.75 324.08 86.85 L 324.556 88.143 L 325.544 88.143 L 325.544 86.317 C 324.994 85.919 323.904 85.487 322.884 85.487 L 322.885 85.488 Z  M 111.616 85.556 C 109.06 86.087 107.388 87.546 107.388 90.236 C 107.388 93.124 109.434 94.683 111.718 94.683 C 112.911 94.384 114.103 93.854 114.989 93.256 L 114.683 92.56 C 113.967 92.992 113.08 93.324 112.331 93.324 C 110.388 93.324 109.229 91.863 109.229 89.771 L 109.229 89.737 L 114.921 89.737 L 114.921 88.973 C 114.921 87.08 114.104 85.556 111.616 85.556 L 111.616 85.556 Z  M 162.292 85.556 C 159.736 86.087 158.068 87.546 158.068 90.236 C 158.068 93.124 160.111 94.683 162.395 94.683 C 163.587 94.384 164.783 93.854 165.669 93.256 L 165.36 92.56 C 164.644 92.992 163.76 93.324 163.011 93.324 C 161.068 93.324 159.909 91.863 159.909 89.771 L 159.909 89.737 L 165.601 89.737 L 165.601 88.973 C 165.601 87.08 164.781 85.556 162.293 85.556 L 162.292 85.556 Z  M 210.585 85.556 C 207.688 86.054 205.986 87.579 205.986 90.335 C 205.986 92.791 207.689 94.683 210.177 94.683 C 213.074 94.218 214.779 92.661 214.779 89.938 C 214.779 87.448 213.107 85.556 210.585 85.556 L 210.585 85.556 Z  M 241.462 85.556 C 238.906 86.087 237.237 87.546 237.237 90.236 C 237.237 93.124 239.247 94.683 241.53 94.683 C 242.723 94.384 243.919 93.854 244.805 93.256 L 244.495 92.56 C 243.78 92.992 242.896 93.324 242.146 93.324 C 240.204 93.324 239.045 91.863 239.045 89.771 L 239.045 89.737 L 244.771 89.737 L 244.771 88.973 C 244.771 87.08 243.95 85.556 241.462 85.556 L 241.462 85.556 Z  M 259.661 85.556 L 256.253 87.048 L 256.253 88.443 L 257.857 88.443 L 258.163 86.983 C 258.572 86.817 259.184 86.651 259.695 86.651 C 260.684 86.651 260.788 87.314 260.788 88.409 L 260.788 89.307 L 256.56 90.669 C 256.151 91.233 255.913 91.698 255.913 92.362 C 255.913 93.823 257.072 94.683 258.674 94.683 L 260.924 93.092 L 261.503 94.485 L 263.923 94.021 L 263.855 93.39 L 262.936 93.39 C 262.765 93.091 262.626 92.824 262.626 92.028 L 262.626 88.443 C 262.626 86.153 262.013 85.556 259.661 85.556 L 259.661 85.556 Z  M 280.894 85.556 L 277.554 87.048 L 277.554 88.443 L 279.158 88.443 L 279.464 86.983 C 279.873 86.817 280.485 86.651 280.996 86.651 C 281.985 86.651 282.089 87.314 282.089 88.409 L 282.089 89.307 L 277.861 90.669 C 277.452 91.233 277.214 91.698 277.214 92.362 C 277.214 93.823 278.373 94.683 279.975 94.683 L 282.191 93.092 L 282.77 94.485 L 285.19 94.021 L 285.122 93.39 L 284.169 93.39 C 283.998 93.091 283.859 92.824 283.859 92.028 L 283.859 88.443 C 283.859 86.153 283.246 85.556 280.894 85.556 L 280.894 85.556 Z  M 138.605 85.587 L 135.844 87.348 L 135.741 85.819 L 134.921 85.887 L 132.674 86.45 L 132.776 87.082 L 134.07 86.983 L 134.07 93.656 L 132.776 93.823 L 132.878 94.451 L 135.026 94.386 L 136.831 94.485 L 136.933 93.854 L 135.912 93.69 L 135.912 88.276 L 136.456 87.911 C 137.104 87.479 137.753 87.082 138.4 87.082 C 139.184 87.082 139.626 87.481 139.626 88.443 L 139.626 93.656 L 138.673 93.823 L 138.775 94.451 L 140.579 94.386 L 142.727 94.451 L 142.829 93.823 L 141.399 93.656 L 141.399 88.577 C 141.399 86.385 140.99 85.587 138.604 85.587 L 138.605 85.587 Z  M 345.004 85.587 L 342.243 87.348 L 342.141 85.819 L 341.321 85.887 L 339.074 86.45 L 339.176 87.082 L 340.469 86.983 L 340.469 93.656 L 339.176 93.823 L 339.278 94.451 L 341.423 94.386 L 343.196 94.485 L 343.298 93.854 L 342.277 93.69 L 342.277 88.276 L 342.856 87.911 C 343.503 87.479 344.149 87.082 344.796 87.082 C 345.58 87.082 346.025 87.481 346.025 88.443 L 346.025 93.656 L 345.072 93.823 L 345.174 94.451 L 346.979 94.386 L 349.127 94.451 L 349.229 93.823 L 347.796 93.656 L 347.796 88.577 C 347.796 86.385 347.39 85.587 345.004 85.587 L 345.004 85.587 Z  M 171.974 85.655 L 169.826 88.211 L 169.758 85.788 L 169.009 85.853 L 166.759 86.419 L 166.861 87.048 L 168.155 86.949 L 168.155 93.622 L 166.861 93.789 L 166.963 94.42 L 169.077 94.352 L 171.804 94.42 L 171.906 93.721 L 169.929 93.557 L 169.929 89.208 L 170.303 88.775 C 170.814 88.177 171.634 87.58 172.077 87.481 L 173.472 87.481 L 173.472 85.655 L 171.974 85.655 L 171.974 85.655 Z  M 311.394 85.788 L 310.475 85.853 L 308.225 86.317 L 308.327 87.017 L 309.658 86.914 L 309.658 91.696 C 309.658 93.821 310.067 94.683 312.555 94.683 L 315.282 93.024 L 315.792 94.519 L 318.213 94.055 L 318.145 93.424 L 317.188 93.424 C 317.052 93.125 316.95 92.858 316.95 92.062 L 316.95 85.788 L 315.997 85.853 L 313.917 86.317 L 314.019 87.017 L 315.145 86.914 L 315.145 92.062 L 314.771 92.294 C 314.055 92.759 313.304 93.222 312.725 93.222 C 311.805 93.222 311.394 92.826 311.394 91.864 L 311.394 85.788 L 311.394 85.788 Z  M 146.615 85.819 L 145.661 85.887 L 143.411 86.45 L 143.513 87.082 L 144.81 86.983 L 144.81 93.656 L 143.513 93.823 L 143.615 94.451 L 145.763 94.386 L 147.911 94.451 L 148.013 93.823 L 146.614 93.656 L 146.614 85.819 L 146.615 85.819 Z  M 148.184 85.819 L 148.082 86.45 L 149.239 86.651 L 152.511 94.717 L 153.876 94.154 L 156.943 86.651 L 158.135 86.45 L 158.033 85.819 L 156.466 85.887 L 154.829 85.819 L 154.727 86.45 L 155.578 86.651 L 153.297 93.256 L 153.226 91.997 L 151.183 86.651 L 152.409 86.45 L 152.307 85.819 L 150.332 85.887 L 148.184 85.819 L 148.184 85.819 Z  M 185.366 85.819 L 184.446 85.887 L 182.196 86.45 L 182.298 87.082 L 183.592 86.983 L 183.592 93.656 L 182.298 93.823 L 182.4 94.451 L 184.548 94.386 L 186.662 94.451 L 186.765 93.823 L 185.366 93.656 L 185.366 85.819 L 185.366 85.819 Z  M 245.723 85.819 L 245.621 86.484 L 246.779 86.682 L 249.506 90.304 L 246.745 93.622 L 245.417 93.789 L 245.519 94.42 L 247.46 94.352 L 248.927 94.42 L 249.029 93.789 L 248.11 93.656 L 250.084 90.867 L 250.221 91.297 L 251.892 93.656 L 251.109 93.823 L 251.211 94.451 L 252.982 94.386 L 255.13 94.451 L 255.232 93.823 L 254.074 93.656 L 251.143 89.604 L 253.628 86.682 L 254.993 86.484 L 254.891 85.819 L 252.947 85.887 L 251.483 85.819 L 251.381 86.484 L 252.3 86.682 L 250.527 89.174 L 250.391 88.71 L 248.995 86.682 L 249.744 86.484 L 249.642 85.819 L 247.871 85.887 L 245.723 85.819 L 245.723 85.819 Z  M 336.89 85.819 L 335.971 85.887 L 333.721 86.45 L 333.823 87.082 L 335.117 86.983 L 335.117 93.656 L 333.823 93.823 L 333.925 94.451 L 336.073 94.386 L 338.184 94.451 L 338.286 93.823 L 336.89 93.656 L 336.89 85.819 L 336.89 85.819 Z  M 111.241 86.45 C 112.706 86.45 112.977 87.448 112.977 88.843 L 109.229 89.007 C 109.365 87.48 110.082 86.45 111.241 86.45 L 111.241 86.45 Z  M 161.952 86.45 C 163.417 86.45 163.691 87.448 163.691 88.843 L 159.943 89.007 C 160.079 87.48 160.793 86.45 161.952 86.45 L 161.952 86.45 Z  M 210.177 86.45 C 211.778 86.45 212.937 88.011 212.937 90.335 C 212.937 92.293 212.153 93.789 210.653 93.789 C 208.983 93.789 207.858 92.03 207.892 89.938 C 207.892 87.946 208.643 86.45 210.177 86.45 Z  M 241.053 86.45 C 242.519 86.45 242.793 87.448 242.793 88.843 L 239.045 89.007 C 239.181 87.48 239.929 86.45 241.053 86.45 L 241.053 86.45 Z  M 260.822 90.037 L 260.822 92.427 L 260.039 92.959 C 259.801 93.125 259.322 93.423 258.81 93.423 C 258.265 93.423 257.721 93.09 257.721 92.161 C 257.721 91.762 257.823 91.399 258.095 91.133 L 260.822 90.037 L 260.822 90.037 Z  M 282.055 90.037 L 282.055 92.427 L 281.272 92.959 C 281.034 93.125 280.555 93.423 280.043 93.423 C 279.498 93.423 278.954 93.09 278.954 92.161 C 278.954 91.762 279.056 91.399 279.328 91.133 L 282.055 90.037 L 282.055 90.037 Z " fill="rgb(134,142,150)"/></g></svg>